<?xml version="1.0" standalone="no"?>
<!DOCTYPE svg PUBLIC "-//W3C//DTD SVG 20010904//EN"
 "http://www.w3.org/TR/2001/REC-SVG-20010904/DTD/svg10.dtd">
<svg version="1.0" xmlns="http://www.w3.org/2000/svg"
 width="1113.000000pt" height="1280.000000pt" viewBox="0 0 1113.000000 1280.000000"
 preserveAspectRatio="xMidYMid meet">
<metadata>
Created by potrace 1.15, written by Peter Selinger 2001-2017
</metadata>
<g transform="translate(0.000000,1280.000000) scale(0.100000,-0.100000)"
fill="#000000" stroke="none">
<path d="M4054 12786 c-29 -13 -64 -50 -64 -68 0 -16 37 -7 70 17 39 29 60 31
98 11 57 -29 102 -103 102 -166 l0 -30 -63 0 c-54 0 -71 4 -108 30 -24 16 -49
30 -55 30 -6 0 -52 -20 -103 -45 -51 -25 -94 -45 -97 -45 -2 0 -4 10 -4 21 0
13 22 43 55 74 54 52 67 75 43 75 -44 0 -116 -76 -138 -144 -13 -41 -9 -141 6
-156 6 -6 28 0 58 15 62 31 79 31 132 0 51 -30 79 -67 88 -116 3 -19 26 -69
51 -110 84 -138 119 -296 119 -539 1 -336 -87 -572 -254 -684 -37 -24 -39 -20
-13 32 37 75 39 151 8 357 -15 99 -28 224 -29 277 l-1 98 -35 0 c-34 0 -37 3
-75 78 -75 146 -214 255 -380 297 -85 21 -244 20 -337 -4 -363 -93 -603 -406
-586 -762 2 -50 0 -89 -5 -89 -22 0 -73 48 -123 115 -51 70 -97 115 -115 115
-13 0 -11 -66 5 -140 8 -36 39 -139 70 -230 65 -194 81 -277 73 -374 l-6 -71
53 -28 c30 -16 62 -37 71 -47 17 -18 16 -22 -13 -67 -17 -26 -36 -61 -43 -78
-6 -16 -13 -24 -16 -17 -3 6 -14 12 -25 12 -17 0 -19 -5 -13 -32 3 -18 22 -79
42 -134 35 -97 38 -102 72 -113 94 -28 143 -106 192 -304 47 -191 57 -217 82
-217 12 0 59 -13 104 -29 109 -39 152 -45 218 -31 60 12 75 28 75 79 0 17 5
31 10 31 11 0 14 -7 25 -53 16 -75 53 20 54 140 l1 72 43 29 c60 42 134 124
197 217 29 44 73 106 97 138 23 31 43 60 43 63 0 3 -20 -9 -44 -25 -27 -19
-83 -82 -143 -163 -146 -195 -201 -238 -302 -238 -34 0 -65 8 -101 28 -52 27
-53 28 -75 107 -13 44 -59 149 -103 235 -77 150 -103 218 -117 308 -7 41 -6
42 22 42 51 0 57 12 32 61 -12 24 -42 69 -67 99 -56 69 -92 143 -93 195 l-1
40 -15 -43 c-21 -60 -28 -45 -13 27 18 84 8 95 -26 31 l-29 -55 -5 64 c-3 39
-10 66 -17 69 -8 2 -13 -6 -13 -22 0 -39 -26 -43 -61 -10 -47 45 -172 234
-154 234 3 0 25 -16 50 -35 44 -33 404 -220 411 -213 2 2 -4 23 -12 47 -36
104 -74 365 -74 505 l0 79 25 -23 c14 -13 25 -27 25 -32 0 -5 11 -33 25 -62
21 -44 54 -76 79 -76 2 0 0 19 -5 43 -13 58 -50 131 -104 202 -25 33 -45 64
-45 68 0 5 30 39 68 76 120 119 278 181 461 181 212 0 380 -80 473 -224 41
-64 72 -153 63 -178 -3 -8 -18 -21 -33 -29 -62 -31 -93 -82 -58 -95 18 -7 50
10 100 53 22 18 48 33 58 33 16 0 16 -3 -5 -42 -35 -67 -30 -171 16 -326 21
-68 37 -130 37 -137 0 -21 -56 -59 -150 -102 -95 -44 -151 -88 -170 -133 -26
-64 9 -77 80 -30 55 37 82 38 100 5 11 -21 10 -31 -4 -70 -30 -76 -82 -85
-124 -20 -29 46 -57 48 -48 3 9 -45 35 -68 93 -83 59 -15 76 -8 103 45 23 45
40 52 40 16 0 -44 -18 -75 -85 -146 -69 -74 -85 -102 -85 -153 l0 -32 -39 43
c-21 23 -44 42 -50 42 -14 0 -14 -1 9 -55 28 -65 26 -93 -5 -101 -35 -9 -39
-2 -24 40 7 20 10 38 6 42 -13 13 -35 -5 -42 -35 -7 -35 -29 -56 -49 -48 -31
12 -40 81 -29 215 5 70 8 129 6 131 -2 3 -12 -4 -23 -15 -14 -13 -23 -42 -29
-90 -10 -80 -24 -114 -48 -114 -11 0 -14 6 -9 23 19 68 19 67 -2 67 -32 0 -92
-25 -177 -74 -91 -52 -142 -63 -206 -45 -76 21 -119 27 -119 17 0 -23 37 -69
67 -83 28 -13 40 -14 69 -5 41 14 39 15 105 -95 87 -145 126 -175 224 -175 79
0 114 22 234 144 70 70 119 111 148 123 40 17 43 20 43 58 1 66 33 120 130
214 49 48 90 92 90 98 0 6 -13 27 -30 48 -18 22 -30 50 -30 66 0 26 4 29 30
29 48 0 91 23 137 73 160 174 244 440 273 862 14 217 13 305 -4 305 -7 0 -19
6 -25 13 -8 11 -6 18 9 32 23 20 28 94 10 141 -9 23 -7 30 15 50 21 19 25 32
25 76 0 29 7 64 15 78 8 14 17 31 21 39 4 7 -3 44 -14 80 -12 37 -22 71 -22
75 0 5 33 5 73 1 269 -26 530 -135 1032 -433 623 -369 1182 -872 1971 -1772
833 -950 1356 -1797 1680 -2717 132 -377 228 -767 285 -1158 22 -152 25 -161
56 -196 40 -44 41 -52 6 -33 -16 7 -42 14 -60 14 -62 0 -65 4 -57 90 7 79 -4
119 -40 149 -13 11 -11 17 20 46 40 38 37 57 -9 53 -32 -3 -32 -3 -29 40 1 26
-6 61 -19 92 -19 44 -20 54 -9 81 13 29 12 32 -18 56 -30 23 -31 25 -16 48 15
23 15 27 -10 69 -27 46 -33 80 -16 91 15 9 12 25 -6 25 -18 0 -39 48 -48 112
-4 26 -15 57 -25 70 -10 13 -21 45 -24 71 -4 26 -28 101 -53 165 -33 83 -48
137 -51 185 -5 56 -9 67 -24 67 -27 0 -49 39 -49 87 0 31 -5 45 -19 52 -22 12
-41 61 -41 104 0 37 -207 458 -357 727 -416 745 -910 1410 -1468 1979 -188
191 -749 725 -870 828 -237 201 -457 340 -1010 638 -110 60 -245 134 -300 165
-84 47 -112 58 -163 63 -55 4 -65 3 -82 -15 -19 -20 -19 -20 -28 13 -13 51
-37 44 -37 -10 0 -53 -22 -68 -31 -22 -10 49 -24 36 -24 -23 0 -32 -8 -74 -20
-102 -11 -26 -19 -48 -18 -49 37 -22 217 -187 323 -296 289 -295 509 -614 719
-1039 472 -955 730 -2180 839 -3990 l12 -195 25 -3 c43 -5 55 -11 43 -23 -8
-8 -8 -20 -1 -41 14 -39 4 -46 -32 -20 -39 29 -46 28 -54 -10 -4 -22 0 -43 14
-70 11 -21 20 -45 20 -53 0 -17 -90 -38 -140 -33 -33 3 -35 5 -32 38 2 19 16
62 32 95 59 123 62 262 20 765 -77 923 -139 1325 -305 1990 -29 118 -68 278
-85 355 -49 223 -78 313 -130 405 -35 62 -69 151 -126 325 -115 353 -198 513
-519 1000 -173 262 -238 349 -349 463 -110 114 -291 240 -313 219 -2 -3 -7
-23 -10 -45 -7 -51 13 -91 83 -173 36 -42 77 -109 119 -194 191 -388 293 -833
336 -1460 14 -201 7 -859 -11 -1101 l-13 -162 30 -43 c16 -24 56 -93 87 -154
32 -60 77 -137 101 -170 38 -55 45 -74 74 -213 36 -171 63 -268 84 -297 14
-18 16 -17 35 21 29 56 48 131 72 274 20 121 48 236 55 229 2 -2 -3 -82 -10
-178 -11 -144 -18 -181 -37 -220 -23 -45 -23 -47 -5 -81 15 -28 18 -56 16
-145 -3 -165 -1 -179 24 -217 16 -23 21 -39 15 -51 -22 -45 -27 -52 -40 -48
-38 10 -184 1 -269 -17 -53 -12 -152 -28 -220 -37 -155 -20 -220 -47 -231 -95
-4 -18 25 -16 242 16 185 27 339 31 416 10 55 -14 114 -45 114 -58 0 -14 -84
-8 -160 12 -101 26 -170 26 -204 -1 -34 -27 -33 -49 7 -86 41 -39 54 -46 210
-104 71 -26 144 -58 163 -71 39 -26 69 -81 57 -102 -6 -12 -39 4 -153 76 -260
162 -423 228 -627 251 -101 11 -103 12 -103 37 0 28 16 88 28 107 4 6 64 21
132 33 69 11 148 25 175 31 58 13 155 56 155 69 0 32 -202 23 -358 -15 -62
-15 -115 -26 -117 -24 -2 3 -11 56 -21 119 -21 148 -15 360 20 630 33 257 35
289 46 605 10 278 24 390 61 491 11 30 27 54 34 54 8 0 30 7 48 16 33 16 34
18 41 92 9 113 7 430 -4 582 -21 280 -76 600 -145 839 -119 415 -203 598 -312
684 l-26 21 6 -215 c3 -118 11 -245 17 -283 11 -61 10 -73 -7 -110 -12 -27
-18 -63 -17 -109 l1 -68 -39 6 c-36 6 -38 5 -38 -20 0 -14 12 -46 26 -71 29
-49 19 -57 -34 -27 -60 35 -81 -28 -32 -97 11 -15 20 -36 20 -47 0 -16 -2 -16
-18 3 -15 20 -52 44 -66 44 -3 0 -6 -15 -6 -34 0 -25 -15 -56 -52 -111 l-51
-76 31 -31 30 -31 129 -1 c115 -1 133 -4 178 -26 99 -48 183 -155 229 -293 76
-226 51 -610 -54 -836 l-31 -65 29 -27 c28 -26 29 -29 21 -86 -5 -32 -18 -204
-29 -383 -22 -367 -29 -430 -66 -574 -35 -132 -34 -216 2 -366 56 -227 33
-446 -100 -977 -89 -355 -136 -614 -136 -754 l0 -59 -39 0 c-42 0 -101 -17
-101 -30 0 -10 71 -26 171 -39 86 -12 119 -22 161 -52 27 -20 30 -20 47 -5 10
9 24 16 33 16 23 0 67 -69 90 -142 32 -98 39 -372 8 -317 -5 8 -23 71 -40 139
-17 68 -38 139 -45 157 -17 41 -55 96 -62 90 -8 -8 17 -128 53 -250 48 -168
57 -233 42 -315 l-12 -67 -7 40 c-5 22 -16 83 -25 135 -21 118 -53 217 -110
339 -70 150 -69 137 30 -235 13 -51 30 -135 36 -188 10 -87 9 -126 -6 -225
l-5 -33 31 22 c71 50 105 122 179 373 23 77 51 158 62 180 17 37 18 43 4 53
-8 6 -15 15 -15 20 0 5 35 26 78 46 59 28 103 60 187 138 61 56 123 109 139
117 29 15 30 15 72 -29 58 -62 73 -114 51 -176 -47 -131 -3 -182 174 -202 67
-8 160 -7 327 1 233 11 502 9 534 -5 15 -7 17 -1 16 42 0 68 20 94 107 139 70
36 73 38 52 50 -32 18 -100 15 -197 -7 -47 -11 -116 -20 -155 -20 -94 0 -132
20 -155 81 -9 26 -49 96 -88 155 -39 60 -81 132 -93 159 -35 77 -30 161 15
266 5 10 -17 51 -63 120 -76 112 -96 164 -67 175 27 11 65 -15 153 -102 64
-65 89 -98 121 -165 44 -92 86 -218 80 -245 -2 -10 -34 -33 -73 -53 -90 -46
-97 -69 -28 -98 72 -31 110 -36 159 -23 37 11 45 18 55 49 8 24 43 66 109 131
80 77 101 103 111 140 15 54 53 98 132 152 186 127 378 164 762 148 785 -34
1354 -218 1675 -541 76 -77 89 -95 107 -151 17 -56 25 -66 69 -95 99 -63 95
-54 46 -107 -45 -49 -51 -71 -27 -102 8 -10 15 -27 15 -36 0 -15 10 -18 68
-18 l68 0 13 38 c8 20 40 84 71 142 114 208 126 295 71 514 -22 88 -34 158
-36 220 -2 83 -11 116 -93 376 -206 646 -445 1258 -594 1520 -378 662 -853
1354 -1272 1850 -243 288 -928 982 -1249 1265 -580 511 -1114 841 -1634 1009
-108 34 -119 36 -255 36 -116 0 -145 -3 -159 -16 -17 -15 -21 -15 -62 5 -50
24 -98 26 -143 7z m1559 -834 c124 -66 487 -352 487 -384 0 -25 -23 -32 -52
-18 -13 7 -81 72 -153 145 -113 115 -148 144 -262 215 -73 45 -133 85 -133 87
0 9 47 -10 113 -45z m-1767 -1031 c-9 -10 -16 -24 -16 -33 0 -11 -8 -13 -30
-10 -36 5 -39 28 -10 65 25 32 64 40 68 14 2 -10 -4 -27 -12 -36z m-533 -537
c34 -110 44 -127 75 -121 15 2 35 8 45 12 10 4 17 3 17 -3 0 -19 -71 -35 -129
-29 -31 3 -77 14 -102 25 -45 20 -119 77 -119 92 0 4 24 19 53 34 29 14 64 37
77 51 21 22 26 24 44 12 12 -8 29 -39 39 -73z m1511 -92 c3 -5 8 -28 12 -52 9
-56 -8 -47 -29 15 -13 38 -13 45 -2 45 8 0 16 -4 19 -8z m-1594 -73 c36 -11
104 -23 153 -26 48 -3 87 -10 87 -15 0 -14 -82 -48 -117 -48 -65 0 -193 67
-193 102 0 10 -6 11 70 -13z m1937 -739 c7 -246 -12 -619 -30 -601 -22 22 -23
91 -5 227 16 117 18 181 14 399 -3 172 -1 250 5 230 5 -16 12 -131 16 -255z
m-118 12 c2 -143 -33 -381 -58 -396 -8 -5 -4 46 20 277 10 104 20 214 20 245
l2 57 7 -50 c5 -27 9 -87 9 -133z m219 -112 c3 -121 -1 -295 -8 -425 -20 -330
-32 -217 -19 185 6 184 8 371 5 415 -4 63 -3 75 5 55 7 -14 14 -115 17 -230z
m1273 -337 c34 -89 127 -513 173 -788 67 -399 116 -919 116 -1234 0 -86 -1
-92 -17 -80 -36 30 -44 78 -53 308 -16 389 -50 716 -121 1166 -37 236 -106
584 -119 607 -5 10 -10 25 -10 33 0 25 20 17 31 -12z m526 -59 c8 -27 61 -206
118 -399 123 -415 144 -492 184 -650 71 -286 115 -570 126 -815 l6 -135 -25
28 c-25 27 -26 34 -26 140 0 257 -78 617 -306 1410 -74 258 -134 475 -134 484
0 34 43 -13 57 -63z m-329 -179 c84 -254 161 -664 232 -1245 23 -188 35 -462
23 -534 -7 -41 -17 24 -67 415 -89 705 -141 1035 -208 1329 -52 228 -47 236
20 35z m-296 65 c96 -351 161 -834 208 -1530 11 -162 24 -313 30 -335 16 -65
12 -110 -10 -130 -11 -10 -20 -14 -20 -9 0 5 -7 63 -15 129 -8 66 -33 329 -55
585 -56 645 -93 932 -156 1200 -34 142 -36 162 -15 158 10 -2 22 -26 33 -68z
m803 -57 c73 -187 195 -555 254 -768 76 -276 141 -618 161 -845 5 -69 13 -143
16 -165 12 -90 -10 -15 -46 161 -165 804 -266 1206 -383 1526 -20 53 -33 99
-30 102 11 11 21 6 28 -11z m-326 -248 c77 -213 140 -504 186 -860 22 -175 76
-718 71 -722 -9 -10 -47 25 -64 57 -14 29 -17 58 -14 170 2 146 -18 325 -84
730 -31 192 -114 628 -130 688 -4 12 -4 22 -1 22 3 0 19 -38 36 -85z m131 23
c5 -13 41 -147 79 -298 126 -496 179 -808 190 -1123 3 -104 3 -191 -1 -193
-15 -10 -47 50 -52 99 -49 485 -102 898 -147 1137 -19 97 -79 342 -94 383 -10
26 14 21 25 -5z m458 -45 c6 -16 14 -40 18 -56 5 -22 3 -26 -10 -21 -8 3 -18
21 -22 40 -3 19 -10 37 -15 40 -14 8 -11 24 5 24 7 0 18 -12 24 -27z m376
-100 c149 -399 315 -966 384 -1318 51 -256 51 -257 35 -243 -41 33 -67 119
-89 285 -26 207 -92 445 -274 1000 -55 167 -100 307 -100 313 0 5 6 10 13 10
7 0 21 -21 31 -47z m-2138 -57 c7 -19 -44 -683 -60 -783 -13 -76 -60 -202 -71
-191 -6 5 8 133 59 558 19 157 37 318 41 358 7 67 19 90 31 58z m2013 -238
c112 -316 203 -688 246 -1013 8 -66 18 -135 21 -154 5 -30 4 -33 -9 -23 -33
28 -59 120 -98 352 -22 133 -51 278 -65 323 -14 45 -29 115 -34 154 -11 98
-14 112 -71 312 -48 169 -53 191 -45 191 2 0 27 -64 55 -142z m116 -4 c92
-241 186 -590 265 -983 23 -112 39 -205 36 -208 -8 -8 -95 273 -141 457 -24
96 -65 265 -90 375 -42 181 -106 427 -122 472 -3 10 -3 15 0 12 4 -3 27 -59
52 -125z m-216 -184 c65 -164 119 -396 170 -740 17 -113 33 -218 36 -235 l4
-30 -28 34 c-35 40 -48 86 -56 206 -7 89 -31 214 -119 619 -58 267 -59 274 -7
146z m640 -25 c55 -152 129 -398 190 -632 52 -201 131 -530 131 -550 0 -3 -11
4 -25 17 -32 30 -51 84 -70 197 -32 193 -189 783 -255 963 -28 75 -31 108 -10
95 4 -3 22 -43 39 -90z m-2737 -56 c-2 -35 -5 -66 -8 -68 -2 -3 -12 2 -20 11
-29 29 -12 136 19 125 8 -3 11 -25 9 -68z m2635 -26 c42 -94 98 -259 137 -400
34 -123 148 -634 143 -640 -2 -1 -14 3 -27 10 -38 19 -58 65 -74 172 -9 55
-25 143 -36 195 -19 86 -165 677 -175 708 -3 6 -2 12 1 12 3 0 17 -26 31 -57z
m301 -180 c5 -10 13 -36 17 -58 4 -22 11 -45 16 -52 6 -7 6 -13 1 -17 -15 -9
-32 18 -52 83 -15 50 -16 61 -4 61 7 0 17 -8 22 -17z m194 -244 c17 -70 20
-95 10 -87 -22 19 -41 64 -58 135 -8 37 -17 77 -20 88 -4 16 0 14 20 -9 16
-19 32 -63 48 -127z m218 98 c0 -2 18 -64 41 -138 48 -160 120 -431 115 -436
-9 -10 -68 149 -100 272 -21 77 -48 175 -62 218 -28 92 -28 87 -9 87 8 0 15
-1 15 -3z m-307 -222 c20 -49 47 -133 61 -185 37 -138 98 -422 92 -428 -7 -7
-50 91 -75 170 -11 35 -38 151 -61 259 -22 108 -47 216 -55 239 -35 98 -6 56
38 -55z m-3803 27 c70 -13 24 -26 -72 -19 -85 6 -94 9 -83 27 8 13 62 10 155
-8z m1685 -86 c8 -39 22 -140 30 -224 8 -84 17 -157 20 -163 13 -20 -11 -7
-27 16 -31 41 -48 133 -49 255 0 63 -4 139 -8 169 -11 79 14 40 34 -53z
m-1807 -22 c29 -8 24 -25 -12 -37 -21 -7 -32 -6 -43 6 -29 28 1 45 55 31z
m4099 -84 c14 -30 33 -89 43 -130 25 -99 72 -381 66 -388 -8 -8 -53 98 -70
165 -8 32 -29 133 -46 226 -17 92 -35 179 -40 195 -10 26 -9 26 6 7 9 -11 27
-45 41 -75z m-3871 39 c38 -11 73 -25 79 -30 16 -16 -40 -10 -107 11 -34 11
-76 20 -93 20 -23 0 -27 3 -15 10 23 15 62 12 136 -11z m-158 -154 c64 -8 120
-15 125 -15 4 0 7 -4 7 -10 0 -5 -15 -10 -34 -10 -40 0 -66 -8 -66 -21 0 -5
33 -9 73 -9 127 0 268 -52 385 -141 l54 -40 52 53 c28 29 82 87 119 128 l67
75 41 -45 c229 -252 276 -353 262 -562 -8 -131 6 -168 93 -245 68 -59 87 -87
97 -139 6 -32 6 -32 -64 -54 -50 -16 -84 -35 -117 -66 l-47 -42 28 -7 c17 -5
34 -2 46 6 10 8 37 29 61 47 24 17 54 32 67 32 23 0 24 -3 18 -37 l-6 -38 83
3 c46 1 117 -1 158 -6 l75 -9 -40 -19 c-37 -18 -66 -19 -408 -19 l-368 0 -27
28 c-27 28 -27 29 -23 150 2 67 7 130 12 139 14 27 0 46 -52 69 -27 13 -49 26
-49 30 0 11 49 27 130 44 92 18 107 9 62 -38 -18 -18 -32 -38 -32 -45 0 -17
51 -15 77 3 40 28 68 134 64 243 -2 38 -19 15 -27 -33 -13 -87 -29 -58 -59
110 -28 160 -56 225 -106 251 -28 14 -69 19 -69 8 0 -3 15 -23 33 -45 106
-123 137 -309 69 -397 -17 -22 -20 -22 -34 -9 -8 9 -18 33 -22 55 -8 52 -25
66 -60 51 -22 -11 -26 -18 -26 -58 0 -44 -3 -47 -49 -78 -27 -17 -102 -76
-167 -130 -66 -54 -137 -112 -159 -129 -42 -33 -156 -104 -166 -104 -4 0 -9
12 -12 28 -15 74 -70 115 -260 196 -82 35 -147 90 -128 109 10 9 17 6 36 -17
l24 -30 53 50 c68 64 141 113 333 224 155 90 194 115 273 179 55 45 55 63 0
59 -37 -3 -43 -6 -43 -27 0 -19 -10 -27 -54 -43 -29 -11 -119 -64 -200 -118
-148 -99 -235 -147 -304 -170 -30 -9 -39 -18 -44 -41 -7 -35 -35 -39 -57 -7
-35 49 -16 164 69 427 30 96 58 198 62 228 6 51 7 54 30 48 13 -3 77 -12 141
-20z m4367 -313 c18 -125 16 -153 -8 -105 -17 32 -32 117 -41 233 l-5 65 19
-40 c10 -22 26 -91 35 -153z m-2837 -333 c2 -13 -13 -22 -59 -38 -34 -11 -64
-19 -66 -17 -2 2 13 20 34 40 40 39 85 46 91 15z m3203 -100 c50 -52 50 -52
31 -73 -11 -12 -25 -31 -31 -43 -23 -45 -106 -19 -135 41 -19 40 -19 47 -5 80
12 25 42 44 72 45 11 1 41 -22 68 -50z"/>
<path d="M5483 6854 c7 -39 32 -74 54 -74 24 0 8 85 -20 102 -28 18 -40 9 -34
-28z"/>
<path d="M5265 6633 c5 -10 10 -61 12 -113 3 -52 9 -99 13 -103 14 -15 50 44
50 82 -1 44 -22 106 -46 132 -21 24 -39 25 -29 2z"/>
<path d="M2173 12764 c-16 -4 -23 -13 -23 -29 0 -28 -39 -76 -46 -57 -13 31
-48 6 -151 -110 -1023 -1150 -1660 -2510 -1872 -3993 -68 -477 -86 -814 -78
-1510 7 -535 17 -812 42 -1160 71 -963 225 -1656 492 -2216 l55 -116 126 -29
c105 -24 149 -29 257 -29 87 0 140 5 160 14 17 7 25 15 18 18 -19 7 -16 15 27
73 57 76 53 133 -10 133 -24 0 -40 -9 -70 -42 -50 -55 -66 -50 -62 18 4 52 3
53 -55 114 -33 34 -73 82 -90 107 -75 111 -146 293 -174 450 -20 109 -18 430
4 545 92 493 359 847 704 936 l76 19 58 -55 c87 -80 212 -134 312 -135 25 0
37 -4 37 -14 0 -47 -37 -174 -76 -265 -136 -311 -128 -286 -128 -401 -1 -97 2
-113 38 -215 33 -94 39 -128 46 -235 21 -323 103 -654 257 -1044 74 -189 143
-335 407 -868 l227 -457 37 15 c63 25 83 37 94 57 14 27 3 32 -27 13 -45 -29
-73 -3 -39 36 18 19 14 23 -31 30 -21 4 -26 35 -10 71 5 13 2 17 -13 17 -33 0
-54 28 -47 61 8 35 -33 116 -255 499 -320 552 -420 789 -480 1135 -16 94 -25
325 -12 325 10 0 37 -31 75 -84 21 -31 67 -36 66 -8 -1 32 -14 50 -55 80 -37
27 -42 37 -53 93 -8 37 -35 104 -68 168 -69 133 -92 197 -100 283 -5 60 -3 73
14 97 62 83 91 169 177 521 86 350 121 443 198 517 38 37 76 53 124 53 l34 0
0 -60 c0 -61 8 -72 30 -45 18 22 30 18 30 -9 0 -23 22 -70 89 -189 27 -47 33
-68 32 -117 0 -52 2 -60 19 -60 17 0 18 -6 13 -69 -5 -60 -3 -70 14 -82 18
-12 20 -26 20 -119 0 -113 17 -199 58 -287 l24 -53 -34 -64 c-25 -48 -46 -119
-80 -268 -39 -175 -53 -219 -101 -320 -57 -120 -74 -182 -57 -213 8 -13 17 3
42 74 18 49 41 101 51 114 23 29 78 54 89 41 13 -14 97 -231 119 -309 36 -122
50 -197 66 -346 9 -79 21 -187 26 -239 46 -412 162 -817 294 -1024 34 -54 36
-60 36 -146 0 -101 -14 -178 -41 -232 -19 -37 -19 -37 0 -48 11 -5 27 -30 37
-55 15 -40 16 -63 8 -178 -4 -73 -8 -162 -9 -200 0 -61 -2 -67 -21 -67 -11 0
-29 -7 -40 -15 -18 -13 -17 -14 17 -15 40 0 63 -19 53 -43 -4 -11 -30 -20 -80
-28 -86 -14 -139 -41 -64 -32 67 8 129 -12 142 -45 15 -39 3 -282 -22 -432
-56 -343 -62 -394 -57 -506 l4 -112 -30 61 c-17 33 -77 123 -135 201 -174 232
-212 322 -212 496 l0 95 50 23 c34 16 63 40 90 75 22 29 54 69 71 90 16 20 25
37 19 37 -26 0 -70 -33 -116 -87 -96 -114 -109 -110 -72 20 11 35 13 37 43 31
18 -3 35 -1 39 4 3 5 1 34 -4 63 -5 30 -16 97 -25 149 -8 52 -20 113 -27 135
l-11 40 -18 -105 c-10 -58 -36 -180 -59 -273 -68 -283 -73 -399 -24 -597 36
-145 77 -203 211 -298 80 -57 113 -120 159 -299 40 -160 80 -249 110 -246 10
1 40 8 67 15 l47 13 0 46 c0 65 -22 177 -64 316 -62 212 -66 304 -15 358 81
86 99 215 74 532 -14 183 -16 322 -13 751 3 556 2 573 -43 680 -21 48 -33 48
-42 2 -8 -39 -24 -38 -35 3 -5 17 -39 111 -75 208 -113 297 -130 384 -147 740
-18 364 -38 465 -126 624 -118 216 -119 220 -118 320 3 199 122 502 215 551
17 8 33 13 36 11 12 -12 17 -149 9 -222 -5 -44 -10 -130 -10 -192 -1 -130 3
-139 99 -213 96 -73 144 -125 151 -159 6 -27 9 -29 22 -19 8 7 24 33 36 58 38
85 18 278 -42 395 l-26 50 -12 -65 c-12 -66 -46 -112 -67 -91 -5 5 -13 95 -18
200 -9 215 -18 257 -91 446 -87 225 -89 251 -48 574 20 150 19 244 -2 257 -6
4 -19 -2 -30 -13 -14 -14 -21 -41 -27 -102 -5 -46 -13 -87 -19 -93 -20 -20
-70 109 -93 237 -24 137 -38 175 -114 294 -34 54 -70 132 -98 211 -25 69 -72
195 -105 280 -159 414 -213 669 -197 941 l7 116 -32 51 c-83 136 -154 343
-230 677 -85 377 -119 513 -163 648 -37 117 -40 129 -25 143 15 15 14 22 -13
86 -16 38 -36 104 -45 146 -19 92 -22 280 -4 372 64 348 297 541 556 460 44
-13 81 -19 102 -15 31 6 32 7 26 43 -3 20 -26 96 -51 167 -109 317 -106 306
-108 398 -1 48 -5 90 -8 94 -4 3 -18 -2 -31 -11 -35 -22 -39 -20 -20 9 13 20
15 36 9 73 -11 66 -11 144 -1 166 8 17 6 19 -22 13 -37 -8 -37 -8 -12 63 25
72 25 145 1 194 l-20 38 41 54 c30 40 51 57 79 66 22 6 41 9 44 7 2 -3 -3 -32
-12 -64 -9 -36 -16 -102 -16 -165 -1 -86 3 -113 20 -152 12 -25 29 -51 40 -56
17 -10 18 -2 19 141 1 128 7 181 36 332 l34 180 47 26 c60 32 104 74 128 122
22 42 32 45 74 17 81 -54 111 12 62 134 -21 50 -31 62 -73 85 -27 15 -78 46
-113 71 -36 24 -87 52 -114 62 -51 19 -153 31 -194 22z m157 -94 c20 -5 44
-16 55 -23 18 -14 17 -16 -17 -63 -44 -60 -62 -115 -54 -162 4 -27 2 -32 -6
-24 -7 7 -43 12 -85 12 -61 0 -76 3 -90 20 -28 32 -36 24 -30 -31 5 -43 4 -49
-8 -39 -48 40 -14 236 54 314 14 16 25 17 81 12 36 -4 81 -11 100 -16z m203
-91 c26 -13 77 -60 77 -70 0 -16 -31 -17 -82 -3 -29 7 -68 14 -85 14 -39 0
-44 19 -13 50 22 22 69 26 103 9z m-493 -86 c0 -27 11 -96 24 -154 14 -59 28
-129 32 -155 6 -44 5 -48 -9 -36 -9 8 -17 22 -19 33 -3 18 -5 18 -21 6 -18
-13 -18 -14 7 -44 32 -38 33 -55 4 -68 -20 -9 -23 -17 -21 -55 1 -28 -10 -84
-32 -153 -85 -268 -125 -588 -129 -1017 -1 -161 -4 -200 -17 -225 l-17 -30 -8
60 c-13 88 -9 415 5 525 7 52 30 203 51 335 49 300 62 405 58 441 l-3 29 -43
-39 c-79 -72 -148 -185 -207 -343 -35 -91 -213 -715 -280 -978 -154 -605 -205
-1040 -205 -1745 0 -690 58 -1290 195 -2035 24 -132 54 -296 65 -365 36 -213
45 -235 137 -334 96 -101 109 -150 49 -177 -17 -8 -34 -5 -75 10 -29 12 -57
19 -62 16 -5 -4 -6 7 -2 25 4 22 -3 52 -23 101 -24 60 -26 75 -17 100 10 24 7
39 -13 91 -13 33 -31 72 -39 85 -50 76 -175 849 -220 1358 -44 501 -53 1226
-22 1650 55 729 160 1323 334 1875 49 156 94 262 207 483 84 166 140 305 161
404 l6 32 -33 -11 c-53 -18 -133 -75 -173 -123 -51 -63 -389 -553 -479 -694
-200 -316 -346 -603 -494 -976 -341 -856 -519 -1610 -572 -2420 -14 -219 -13
-462 4 -781 8 -148 17 -377 21 -509 20 -796 51 -1263 111 -1665 66 -444 168
-819 290 -1061 73 -146 96 -219 92 -286 l-3 -48 -66 130 c-221 434 -360 999
-434 1765 -66 684 -114 2028 -86 2425 24 340 75 649 147 895 20 69 49 197 65
285 180 1021 574 1921 1212 2770 177 234 520 645 540 645 4 0 7 -21 7 -47z
m-401 -2703 c10 -52 17 -97 16 -98 -13 -15 -55 128 -55 185 0 52 20 8 39 -87z
m-141 -1232 c7 -7 12 -37 12 -67 0 -69 -16 -57 -28 22 -9 58 -6 67 16 45z
m-1017 -433 c-26 -831 81 -1827 283 -2635 18 -74 32 -137 30 -138 -6 -8 -45
82 -59 136 -199 797 -285 1454 -285 2172 0 294 22 732 35 718 2 -2 0 -115 -4
-253z m314 31 c8 -47 19 -199 25 -338 6 -139 15 -280 20 -312 20 -127 -10 -51
-36 94 -8 42 -16 182 -19 315 -3 132 -8 262 -10 289 -7 75 5 48 20 -48z m846
-646 c95 -479 203 -942 279 -1196 15 -52 26 -94 24 -94 -16 0 -128 339 -184
556 -89 349 -246 1193 -253 1364 l-6 115 40 -220 c22 -121 67 -357 100 -525z
m-70 -345 c61 -310 152 -665 225 -880 35 -104 67 -199 71 -210 11 -38 -75 56
-96 104 -10 25 -29 98 -41 161 -12 63 -43 194 -70 290 -102 374 -185 810 -255
1350 -14 107 -25 204 -24 215 0 11 34 -169 75 -400 40 -231 92 -514 115 -630z
m-561 886 c0 -37 2 -90 5 -117 5 -49 5 -49 -9 -19 -17 35 -22 205 -6 205 6 0
10 -30 10 -69z m796 -756 c30 -132 100 -422 155 -644 54 -222 99 -407 98 -410
-1 -11 -40 104 -90 269 -64 209 -147 535 -194 760 -37 180 -116 632 -114 660
0 8 20 -77 45 -190 24 -113 69 -313 100 -445z m312 551 c5 -104 -25 -76 -43
42 -7 41 -6 42 17 33 20 -7 23 -15 26 -75z m-1758 -566 c30 -678 108 -1283
216 -1674 14 -48 23 -90 20 -93 -5 -6 -65 177 -100 307 -113 426 -168 1001
-164 1735 1 301 3 286 28 -275z m230 180 c71 -801 187 -1516 305 -1875 21 -64
-18 24 -48 110 -147 412 -202 762 -267 1696 -16 240 -10 288 10 69z m1289 -19
c14 -54 24 -127 17 -120 -9 9 -42 107 -50 148 -5 29 -4 32 9 21 8 -7 19 -29
24 -49z m-1095 -447 c25 -148 61 -370 81 -494 45 -277 95 -521 140 -682 19
-67 33 -124 31 -126 -6 -5 -54 60 -65 90 -20 53 -95 436 -136 703 -23 144
-105 754 -105 778 0 42 16 -37 54 -269z m1170 151 c20 -60 72 -249 115 -420
44 -170 87 -332 95 -360 l15 -50 -21 25 c-51 60 -84 166 -128 405 -13 66 -35
160 -51 210 -47 151 -84 325 -65 304 2 -2 20 -53 40 -114z m-465 -120 c16 -71
57 -251 91 -399 33 -148 63 -274 67 -279 3 -6 1 -7 -5 -3 -24 15 -87 210 -121
375 -19 90 -71 410 -71 434 0 27 11 -8 39 -128z m-555 -162 c69 -395 152 -768
201 -903 20 -57 32 -170 17 -170 -20 0 -51 87 -66 187 -9 56 -24 137 -35 180
-68 265 -122 522 -144 688 -42 305 -25 316 27 18z m201 -308 c49 -215 129
-579 139 -634 21 -118 -59 138 -115 365 -40 164 -103 516 -113 634 -5 54 -2
46 18 -50 14 -63 45 -205 71 -315z m200 -270 c47 -161 77 -283 73 -303 -4 -18
-55 135 -93 278 -35 130 -56 249 -48 278 5 21 10 10 19 -53 7 -44 29 -134 49
-200z m-925 -316 c13 -76 8 -101 -8 -47 -14 44 -22 129 -12 123 5 -3 14 -37
20 -76z m1582 26 c8 -17 5 -31 -11 -62 -11 -22 -25 -61 -32 -86 l-11 -46 -65
32 -65 32 5 42 c9 81 79 142 140 121 16 -6 33 -21 39 -33z m-146 -205 c13 0
14 -3 4 -15 -7 -8 -19 -15 -27 -15 -12 0 -110 38 -122 47 -3 2 3 19 13 39 l17
36 49 -46 c27 -25 57 -46 66 -46z m-1278 -495 c71 -237 105 -365 98 -373 -4
-3 -6 -1 -6 5 0 6 -12 28 -26 49 -17 24 -33 71 -44 125 -10 47 -44 177 -75
290 -62 220 -95 366 -94 414 0 17 20 -46 43 -140 24 -93 71 -260 104 -370z
m-18 -239 c55 -170 99 -314 97 -319 -6 -18 -75 126 -108 223 -27 82 -110 416
-108 437 1 16 20 -39 119 -341z m2346 32 c14 -66 39 -399 31 -421 -10 -28 -36
149 -42 283 -3 80 -9 161 -12 180 -10 59 8 25 23 -42z m-2264 -492 c4 -6 8
-22 8 -35 0 -20 -2 -22 -16 -10 -15 12 -44 61 -44 74 0 8 44 -16 52 -29z m62
-438 c35 -50 4 -68 -32 -19 -11 16 -18 31 -15 35 13 12 32 5 47 -16z m157
-322 c58 -50 65 -103 19 -136 -38 -27 -66 -14 -76 36 -6 33 12 124 25 124 3 0
18 -11 32 -24z m264 -213 c-63 -54 -160 -58 -127 -5 5 7 37 17 71 23 52 10 64
16 74 37 l12 26 4 -24 c2 -19 -6 -33 -34 -57z"/>
<path d="M10980 12117 c-19 -6 -36 -11 -37 -12 -3 -1 28 -119 32 -123 2 -2 96
18 102 23 1 0 -1 17 -6 36 -5 19 -12 46 -15 62 -7 29 -19 32 -76 14z"/>
<path d="M2890 11002 c0 -6 12 -20 26 -31 23 -18 41 -21 135 -21 96 0 111 -2
129 -20 28 -28 26 -50 -4 -50 -36 0 -67 -14 -100 -45 -24 -23 -28 -31 -23 -63
4 -25 18 -48 42 -69 30 -29 42 -33 88 -33 51 0 126 20 210 55 43 18 43 28 1
101 -45 79 -120 129 -236 158 -85 21 -268 34 -268 18z m365 -185 c22 -12 41
-30 43 -39 2 -9 -12 -33 -30 -53 l-33 -36 -52 16 c-55 16 -107 64 -101 94 8
43 110 54 173 18z"/>
<path d="M3190 10750 c0 -28 27 -36 50 -15 25 22 17 35 -21 35 -22 0 -29 -5
-29 -20z"/>
<path d="M3450 10912 c0 -62 4 -94 15 -108 13 -16 16 -17 25 -4 11 18 12 54 4
139 -6 50 -10 61 -25 61 -17 0 -19 -9 -19 -88z"/>
<path d="M3523 10909 c8 -118 17 -137 51 -103 23 22 20 67 -9 124 -40 79 -49
75 -42 -21z"/>
<path d="M4010 10686 c0 -27 24 -51 40 -41 12 8 3 46 -14 57 -19 13 -26 9 -26
-16z"/>
<path d="M2922 10628 c4 -40 38 -54 38 -16 0 24 -16 48 -33 48 -4 0 -7 -15 -5
-32z"/>
<path d="M2046 10508 c-29 -105 -29 -110 -7 -99 22 12 41 61 41 107 0 53 -18
49 -34 -8z"/>
<path d="M2121 10485 c-15 -61 -15 -62 23 -69 27 -5 51 -24 102 -82 37 -41 80
-82 95 -90 32 -16 89 -19 89 -4 0 25 -45 95 -94 149 -29 31 -61 71 -71 89 -16
27 -25 32 -58 32 -21 0 -47 4 -57 10 -15 8 -19 4 -29 -35z"/>
<path d="M4055 10308 c-7 -44 -20 -68 -36 -68 -5 0 -9 11 -9 23 0 41 -13 39
-34 -5 -19 -38 -25 -43 -58 -46 -33 -3 -37 -6 -40 -35 -3 -28 -7 -32 -35 -35
-27 -3 -35 -10 -53 -48 -31 -62 -107 -143 -229 -241 -57 -46 -97 -83 -90 -83
37 0 132 73 242 184 124 126 174 160 245 172 35 5 41 10 47 38 6 30 7 30 17 9
14 -28 48 -31 48 -4 0 26 24 43 52 36 21 -5 24 -1 36 47 17 74 16 88 -8 88
-13 0 -22 -9 -26 -27 -10 -46 -13 -53 -25 -53 -8 0 -9 14 -5 45 7 40 5 45 -13
45 -15 0 -21 -9 -26 -42z"/>
<path d="M4040 9955 c0 -9 -11 -38 -25 -65 -25 -49 -32 -90 -17 -90 18 0 45
41 68 104 l24 66 -25 0 c-16 0 -25 -6 -25 -15z"/>
<path d="M1751 9848 c-1 -58 4 -101 15 -127 18 -46 44 -62 44 -28 0 46 -21
149 -40 195 l-19 47 0 -87z"/>
<path d="M4091 9866 c-13 -14 -34 -56 -46 -94 l-23 -69 34 -69 c37 -75 54
-148 54 -228 0 -58 -7 -71 -35 -71 -18 0 -21 -12 -32 -130 -40 -400 -125 -587
-289 -635 -35 -11 -45 -10 -66 4 -22 14 -27 15 -37 2 -30 -36 107 -33 179 4
113 57 194 204 240 431 l18 94 -4 -80 c-2 -44 -6 -174 -9 -289 -3 -116 -13
-262 -20 -325 -13 -100 -48 -255 -71 -314 -6 -15 -3 -17 20 -11 33 8 33 0 0
-43 -29 -39 -23 -57 18 -51 26 4 29 2 23 -16 -3 -12 -11 -37 -16 -56 -6 -19
-13 -140 -16 -269 l-6 -233 -44 -28 c-92 -58 -200 -63 -354 -14 -60 19 -82 31
-88 47 -5 12 -21 33 -35 46 -17 16 -24 31 -21 42 4 12 -4 28 -24 46 -17 15
-52 59 -78 97 -31 45 -61 76 -85 89 -23 11 -38 26 -38 37 0 10 -7 23 -15 30
-8 7 -15 18 -15 26 0 7 -24 29 -54 49 -99 65 -154 136 -302 384 -114 191 -225
304 -335 340 -29 9 -44 25 -82 89 -61 102 -104 209 -199 497 -85 257 -156 435
-189 475 -17 20 -20 21 -14 5 14 -42 18 -85 6 -85 -12 0 -77 63 -138 135 l-42
50 0 -38 c-1 -65 25 -107 130 -209 166 -161 190 -227 356 -986 4 -15 22 -31
53 -47 95 -48 148 -140 191 -332 15 -68 27 -103 36 -103 7 0 13 9 13 19 0 29
11 51 24 51 14 0 64 -153 96 -290 27 -118 63 -346 105 -670 45 -349 78 -551
117 -713 l30 -128 55 -37 c43 -28 67 -37 114 -40 l59 -4 70 -84 c121 -143 166
-167 315 -165 109 1 160 -10 175 -39 15 -28 13 -29 -24 -23 -25 4 -53 -4 -114
-31 -99 -45 -134 -45 -289 -6 -144 38 -181 35 -235 -20 -68 -67 -47 -79 43
-24 87 52 108 53 221 5 52 -23 111 -41 131 -41 21 0 69 16 118 40 46 22 89 40
96 40 8 0 31 -9 53 -20 22 -11 51 -20 65 -20 34 0 33 26 -6 100 l-31 60 63 71
c76 85 101 99 176 99 54 0 56 1 40 17 -14 15 -25 16 -79 6 -37 -6 -67 -7 -73
-2 -21 20 -11 123 22 204 44 111 53 197 53 493 1 141 5 289 10 327 5 39 14
187 20 330 12 306 22 409 57 565 24 108 25 124 17 250 -5 74 -9 275 -8 445 0
325 11 447 54 633 l20 83 -24 47 c-37 73 -59 160 -60 235 0 37 -1 67 -1 67 -1
0 -12 -11 -24 -24z m-1071 -2099 c0 -32 -11 -108 -25 -169 -34 -149 -45 -255
-45 -424 0 -124 7 -200 26 -269 12 -48 -26 20 -48 84 -34 98 -32 305 6 536 15
94 30 217 33 274 l6 103 24 -38 c17 -29 23 -54 23 -97z m222 -61 c13 -13 32
-26 42 -28 15 -2 23 -17 32 -60 28 -123 121 -262 210 -314 105 -62 266 -71
337 -20 12 9 44 32 71 51 67 49 76 46 76 -19 l0 -54 -97 -18 c-56 -11 -142
-19 -200 -19 -109 0 -124 -8 -82 -43 64 -52 69 -57 60 -71 -16 -25 -66 6 -132
80 -44 50 -71 71 -98 79 -45 12 -76 60 -152 235 -28 66 -67 144 -85 173 -36
56 -25 73 18 28z m-90 -648 c3 -177 7 -220 21 -253 36 -81 95 -116 84 -50 l-6
35 51 0 c70 0 123 28 213 112 42 39 79 67 83 63 4 -3 -6 -18 -22 -31 -15 -14
-26 -27 -23 -30 10 -10 66 26 144 91 83 70 143 110 143 96 0 -5 -26 -30 -57
-56 -79 -66 -153 -137 -153 -148 0 -31 115 44 243 157 81 73 97 84 97 65 0
-23 -55 -81 -163 -172 -32 -27 -64 -62 -72 -78 -15 -28 -15 -29 5 -29 36 0 62
19 136 98 40 43 75 74 79 70 16 -15 -10 -52 -71 -100 -87 -68 -89 -74 -63
-156 27 -85 37 -302 20 -463 -13 -122 -8 -144 29 -121 25 15 25 6 1 -34 -23
-37 -87 -70 -156 -79 -98 -12 -260 39 -328 103 -31 29 -67 92 -67 115 0 11
-17 16 -60 19 -97 7 -155 63 -155 150 0 44 4 53 36 82 20 18 41 35 47 37 8 3
3 28 -17 79 -39 101 -61 239 -61 382 0 120 16 258 31 258 4 0 9 -96 11 -212z
m279 32 c15 -9 19 -22 19 -65 0 -60 -13 -70 -45 -35 -10 11 -24 20 -32 20 -16
0 -16 3 -1 51 12 40 25 47 59 29z m539 -205 c0 -3 -18 -24 -40 -46 -33 -35
-40 -38 -40 -21 0 11 14 32 31 46 28 24 49 33 49 21z m-880 -366 c0 -39 -12
-50 -27 -26 -4 6 -8 34 -8 60 0 48 0 48 17 27 10 -13 18 -39 18 -61z"/>
<path d="M4868 9679 c-19 -11 -24 -34 -9 -44 16 -9 62 17 59 34 -4 19 -27 24
-50 10z"/>
<path d="M4854 9428 c-12 -237 -9 -395 7 -433 l13 -30 8 50 c4 28 11 169 14
313 6 221 5 265 -7 273 -8 5 -17 9 -20 9 -3 0 -10 -82 -15 -182z"/>
<path d="M3146 9188 c22 -242 53 -400 100 -506 30 -69 74 -145 80 -139 2 2
-18 70 -45 151 -67 198 -91 312 -91 435 0 89 -2 101 -19 111 -30 16 -31 14
-25 -52z"/>
<path d="M4878 8872 c-30 -45 -36 -72 -15 -72 17 0 50 71 45 96 -2 13 -9 8
-30 -24z"/>
<path d="M4918 8803 c-31 -40 -36 -63 -14 -63 21 0 56 48 56 76 0 33 -10 30
-42 -13z"/>
<path d="M4010 8752 c0 -10 -13 -39 -30 -65 -47 -75 -38 -121 10 -50 64 95 75
133 40 133 -13 0 -20 -7 -20 -18z"/>
<path d="M3355 8589 c11 -36 35 -79 43 -79 13 0 38 20 25 20 -6 0 -20 17 -30
37 -21 43 -49 59 -38 22z"/>
<path d="M2760 8542 c0 -28 24 -72 40 -72 8 0 6 26 -5 78 -8 32 -35 28 -35 -6z"/>
<path d="M3510 8536 c0 -15 8 -30 21 -36 21 -12 49 -7 49 8 0 15 -25 40 -47
47 -20 5 -23 3 -23 -19z"/>
<path d="M2985 8540 c-9 -14 23 -70 40 -70 18 0 18 -1 4 38 -11 31 -34 48 -44
32z"/>
<path d="M2850 8510 c0 -23 33 -60 55 -60 23 0 18 28 -10 55 -29 30 -45 32
-45 5z"/>
<path d="M5210 8071 c0 -18 41 -43 91 -57 30 -7 57 -14 62 -14 14 0 7 37 -10
52 -19 16 -143 33 -143 19z"/>
<path d="M4896 7996 c3 -9 18 -16 33 -16 14 0 73 -12 131 -26 120 -29 248 -42
275 -26 17 9 16 12 -16 31 -59 36 -99 44 -267 48 -146 5 -162 3 -156 -11z"/>
<path d="M2815 6251 c-36 -16 -88 -61 -71 -61 4 0 23 9 44 20 79 42 100 74 27
41z"/>
<path d="M4191 6148 c15 -54 69 -80 69 -35 0 26 -38 67 -62 67 -14 0 -15 -5
-7 -32z"/>
<path d="M3967 6063 c-15 -14 -6 -64 16 -85 l22 -23 3 37 c4 52 -20 93 -41 71z"/>
<path d="M4250 6037 c0 -3 16 -39 35 -80 52 -116 131 -332 170 -468 28 -95 34
-132 29 -169 -6 -49 10 -80 43 -80 14 0 15 12 9 93 -8 111 -9 117 -96 387 -38
118 -72 228 -75 243 -3 15 -13 30 -23 33 -9 3 -34 15 -54 26 -21 10 -38 17
-38 15z"/>
<path d="M3991 5908 c-45 -23 -68 -58 -38 -58 44 0 120 -35 165 -75 61 -55 84
-93 156 -259 58 -131 94 -193 141 -236 l27 -25 -27 70 c-15 39 -33 87 -41 108
-19 53 -100 211 -139 272 -37 58 -144 176 -184 203 -25 17 -28 17 -60 0z"/>
<path d="M3056 5718 c-3 -29 -9 -153 -12 -276 -7 -229 1 -341 32 -434 13 -39
14 -24 7 152 -10 263 -10 461 1 543 7 56 6 67 -7 67 -10 0 -16 -15 -21 -52z"/>
<path d="M2427 4775 c-5 -22 -33 -114 -62 -205 -49 -152 -80 -299 -58 -275 11
11 93 267 118 363 9 35 15 85 13 110 l-3 47 -8 -40z"/>
<path d="M2260 4490 c0 -8 -11 -37 -23 -65 -31 -65 -38 -97 -27 -115 21 -34
80 57 80 123 0 33 -29 89 -30 57z"/>
<path d="M2431 4321 c-6 -10 -13 -38 -17 -61 -6 -37 -5 -42 11 -38 13 2 24 21
36 61 16 55 16 57 -2 57 -10 0 -23 -8 -28 -19z"/>
<path d="M3034 2451 c-43 -26 -73 -69 -129 -181 -26 -52 -54 -103 -63 -112
-11 -14 -12 -18 -2 -18 26 0 91 83 136 173 26 51 57 107 71 125 28 38 28 38
-13 13z"/>
<path d="M2520 2383 c0 -5 16 -67 36 -138 36 -134 63 -192 108 -234 19 -18 24
-30 20 -48 -8 -31 1 -64 26 -91 48 -51 67 -12 25 50 -35 51 -33 69 5 62 29 -6
30 -5 30 29 0 31 -7 42 -54 81 -47 41 -54 52 -60 94 -9 64 -48 145 -82 169
-44 30 -54 35 -54 26z"/>
<path d="M2838 1928 c-42 -15 -35 -32 10 -24 20 3 45 6 54 6 11 0 15 5 12 15
-7 17 -36 18 -76 3z"/>
<path d="M2847 1883 c-17 -16 -4 -24 35 -21 55 4 64 28 11 28 -22 0 -43 -3
-46 -7z"/>
</g>
</svg>
